<?xml version="1.0" encoding="iso-8859-1"?>
<!-- Generator: Adobe Illustrator 19.0.0, SVG Export Plug-In . SVG Version: 6.00 Build 0)  -->
<svg version="1.1" id="Capa_1" xmlns="http://www.w3.org/2000/svg" xmlns:xlink="http://www.w3.org/1999/xlink" x="0px" y="0px"
	 viewBox="0 0 512 512" style="enable-background:new 0 0 512 512;" xml:space="preserve">
<path style="fill:#FFDA45;" d="M114.916,114.916C15.93,213.902-17.945,357.287,8.804,503.196
	c145.909,26.749,289.294-7.126,388.28-106.112S529.945,154.713,503.196,8.804C357.287-17.945,213.902,15.93,114.916,114.916z"/>
<path style="fill:#FFBC36;" d="M8.804,503.196c145.909,26.749,289.294-7.126,388.28-106.112S529.945,154.713,503.196,8.804
	C406.001,105.999,117.409,394.591,8.804,503.196z"/>
<polygon style="fill:#F2F6FC;" points="324.257,256.467 345.47,235.254 321.715,211.499 338.362,194.851 317.149,173.638 
	300.502,190.286 276.746,166.53 255.533,187.743 279.289,211.499 256,234.787 232.244,211.032 211.031,232.245 234.787,256 
	211.498,279.288 187.743,255.533 166.53,276.746 190.285,300.501 173.638,317.149 194.851,338.362 211.498,321.714 235.254,345.47 
	256.467,324.257 232.711,300.501 256,277.213 279.756,300.968 300.969,279.755 277.213,256 300.502,232.711 "/>
<path style="fill:#FFBC36;" d="M319.705,8.295c1.276,48.624,20.742,94.037,55.353,128.648c34.61,34.611,80.021,54.084,128.646,55.36
	c11.275-58.481,10.995-120.754-0.508-183.498C440.454-2.698,378.184-2.979,319.705,8.295z"/>
<path style="fill:#FFA426;" d="M375.058,136.942c34.61,34.611,80.021,54.084,128.646,55.36
	c11.275-58.481,10.995-120.754-0.508-183.498C460.335,51.665,399.137,112.863,375.058,136.942z"/>
<path style="fill:#F2F6FC;" d="M511.549,82.821c-22.06,0.735-43.348-7.61-59.054-23.316c-15.707-15.707-24.053-36.999-23.316-59.054
	c-10.052-0.418-20.056-0.54-29.999-0.357c-0.836,30.117,10.637,59.159,32.103,80.625c20.735,20.734,48.538,32.155,77.553,32.155
	c1.022,0,2.046-0.019,3.072-0.047C512.09,102.881,511.968,92.875,511.549,82.821z"/>
<path style="fill:#E9EDF5;" d="M511.549,82.821c-22.06,0.735-43.348-7.61-59.054-23.316l-21.213,21.213
	c20.735,20.734,48.538,32.155,77.553,32.155c1.022,0,2.046-0.019,3.072-0.047C512.09,102.881,511.968,92.875,511.549,82.821z"/>
<path style="fill:#FFBC36;" d="M192.289,503.711c-1.276-48.624-20.742-94.037-55.353-128.648
	c-34.61-34.611-80.021-54.084-128.646-55.36C-2.985,378.184-2.704,440.457,8.798,503.202
	C71.54,514.704,133.81,514.985,192.289,503.711z"/>
<path style="fill:#FFA426;" d="M192.289,503.711c-1.276-48.624-20.742-94.037-55.353-128.648L8.798,503.202
	C71.54,514.704,133.81,514.985,192.289,503.711z"/>
<path style="fill:#F2F6FC;" d="M0.445,429.185c22.06-0.735,43.348,7.61,59.054,23.316c15.707,15.707,24.053,36.999,23.316,59.054
	c10.052,0.418,20.056,0.54,29.999,0.357c0.836-30.117-10.637-59.159-32.103-80.625c-20.735-20.734-48.538-32.155-77.553-32.155
	c-1.022,0-2.046,0.019-3.072,0.047C-0.096,409.125,0.026,419.131,0.445,429.185z"/>
<g>
	<path style="fill:#E9EDF5;" d="M59.499,452.501c15.707,15.707,24.053,36.999,23.316,59.054c10.052,0.418,20.056,0.54,29.999,0.357
		c0.836-30.117-10.637-59.159-32.103-80.625L59.499,452.501z"/>
	<polygon style="fill:#E9EDF5;" points="338.362,194.851 327.756,184.244 184.244,327.756 194.851,338.362 211.498,321.714 
		235.254,345.47 256.467,324.257 232.711,300.501 256,277.213 279.756,300.968 300.969,279.755 277.213,256 300.502,232.711 
		324.257,256.467 345.47,235.254 321.715,211.499 	"/>
</g>
<g>
</g>
<g>
</g>
<g>
</g>
<g>
</g>
<g>
</g>
<g>
</g>
<g>
</g>
<g>
</g>
<g>
</g>
<g>
</g>
<g>
</g>
<g>
</g>
<g>
</g>
<g>
</g>
<g>
</g>
</svg>
